<?xml version="1.0" encoding="UTF-8"?>
<svg version="1.1" xmlns="http://www.w3.org/2000/svg" width="1080" height="1080">
<path d="M0 0 C356.4 0 712.8 0 1080 0 C1080 356.4 1080 712.8 1080 1080 C723.6 1080 367.2 1080 0 1080 C0 723.6 0 367.2 0 0 Z " fill="#252668" transform="translate(0,0)"/>
<path d="M0 0 C181.17 0 362.34 0 549 0 C549 111.21 549 222.42 549 337 C367.83 337 186.66 337 0 337 C0 225.79 0 114.58 0 0 Z " fill="#FDFDFE" transform="translate(108,378)"/>
<path d="M0 0 C97.02 0 194.04 0 294 0 C294 111.21 294 222.42 294 337 C196.98 337 99.96 337 0 337 C0 225.79 0 114.58 0 0 Z " fill="#FEFEFE" transform="translate(678,378)"/>
<path d="M0 0 C1.02569595 -0.00619858 2.05139191 -0.01239716 3.10816956 -0.01878357 C5.27596081 -0.02588304 7.44380657 -0.02270555 9.61157227 -0.01000977 C12.92631585 0.00384318 16.2382298 -0.03019937 19.55273438 -0.06835938 C21.66015694 -0.0693107 23.76758304 -0.06745104 25.875 -0.0625 C26.86471298 -0.07575821 27.85442596 -0.08901642 28.87413025 -0.10267639 C35.78287713 -0.00933876 35.78287713 -0.00933876 39.60571289 3.04321289 C40.2321167 3.8758667 40.85852051 4.70852051 41.50390625 5.56640625 C41.83390625 5.89640625 42.16390625 6.22640625 42.50390625 6.56640625 C42.61797193 8.10995318 42.66347551 9.65864118 42.6809082 11.20629883 C42.69374344 12.19435013 42.70657867 13.18240143 42.71980286 14.20039368 C42.73088326 15.81436287 42.73088326 15.81436287 42.7421875 17.4609375 C42.75025925 18.5598381 42.75833099 19.65873871 42.76664734 20.79093933 C42.78050764 23.12208468 42.79122104 25.45325049 42.79907227 27.78442383 C42.81628334 31.35341806 42.860153 34.92148596 42.90429688 38.49023438 C42.91442332 40.75129525 42.92293957 43.01236402 42.9296875 45.2734375 C42.94719559 46.34334427 42.96470367 47.41325104 42.98274231 48.51557922 C42.96112124 55.88754502 42.96112124 55.88754502 40.69995117 59.24487305 C37.49207011 61.17530775 35.16752721 61.03268528 31.50390625 60.56640625 C29.80737305 59.4675293 29.80737305 59.4675293 28.50390625 57.56640625 C28.16333008 54.47192383 28.16333008 54.47192383 28.2109375 50.7109375 C28.21518234 50.04930099 28.21942719 49.38766449 28.22380066 48.70597839 C28.24056932 46.59653715 28.27821526 44.48805779 28.31640625 42.37890625 C28.33145557 40.94727944 28.34514355 39.51563763 28.35742188 38.08398438 C28.39046595 34.57781337 28.44223458 31.07220371 28.50390625 27.56640625 C22.03911166 33.01371893 16.07649038 38.89251314 10.14404297 44.90795898 C9.12825119 45.93387705 8.11218076 46.95951928 7.09585571 47.98490906 C4.92303991 50.17769562 2.75160208 52.3718343 0.58108139 54.56689262 C-2.85232652 58.0379238 -6.29242507 61.50227151 -9.73410034 64.96510315 C-10.31670911 65.55134931 -10.89931788 66.13759546 -11.49958146 66.74160665 C-12.68988631 67.93931548 -13.88020695 69.13700862 -15.07054305 70.3346864 C-23.07256796 78.38658836 -31.07011079 86.44281204 -39.04931641 94.51733398 C-44.44753896 99.97993997 -49.85628756 105.43187526 -55.27749813 110.87167126 C-58.14171879 113.7465702 -61.00020989 116.62669517 -63.84585953 119.51998711 C-66.51713548 122.23583501 -69.20201673 124.93743837 -71.89804459 127.62870979 C-72.88449301 128.61840722 -73.86579381 129.61326621 -74.84148407 130.61357117 C-76.17374563 131.97791236 -77.52648932 133.32216323 -78.88015747 134.66526794 C-79.63116793 135.42310798 -80.38217838 136.18094801 -81.15594673 136.96175289 C-84.13652018 139.00555064 -85.95203552 138.96103759 -89.49609375 138.56640625 C-91.4453125 137.41967773 -91.4453125 137.41967773 -93.18359375 135.75 C-93.86035156 135.11046387 -94.53710938 134.47092773 -95.234375 133.81201172 C-95.98074219 133.07096191 -96.72710938 132.32991211 -97.49609375 131.56640625 C-98.78580078 130.30594482 -98.78580078 130.30594482 -100.1015625 129.02001953 C-102.91901488 126.24180882 -105.71093263 123.43936966 -108.49609375 120.62890625 C-109.47111761 119.64885315 -110.44637655 118.66903385 -111.421875 117.68945312 C-113.78225993 115.31738312 -116.1402628 112.94299765 -118.49609375 110.56640625 C-121.75280204 111.99450205 -123.90554047 113.73203908 -126.40490723 116.24816895 C-127.17031326 117.01371597 -127.9357193 117.779263 -128.72431946 118.56800842 C-129.55457138 119.40859299 -130.3848233 120.24917755 -131.24023438 121.11523438 C-132.12196823 121.99988876 -133.00370209 122.88454315 -133.91215515 123.79600525 C-135.82688918 125.71835307 -137.73971198 127.64240341 -139.64958191 129.56956482 C-142.66995586 132.61700436 -145.69796206 135.65678238 -148.72717285 138.69543457 C-155.15607853 145.14653225 -161.57651053 151.60603359 -167.99609375 158.06640625 C-174.92665341 165.04100205 -181.85863462 172.01414737 -188.80042219 178.97757101 C-191.81113376 181.9982457 -194.81690129 185.02373004 -197.81897736 188.05298615 C-200.12601871 190.37845135 -202.43951533 192.69748094 -204.75195312 195.01757812 C-205.58220505 195.85816269 -206.41245697 196.69874725 -207.26786804 197.56480408 C-208.03327408 198.3303511 -208.79868011 199.09589813 -209.58728027 199.88464355 C-210.24946312 200.55126762 -210.91164597 201.21789169 -211.59389496 201.90471649 C-213.50367192 203.57302625 -215.14279031 204.63512166 -217.49609375 205.56640625 C-220.23841876 205.36574832 -221.97504308 204.88981701 -224.30859375 203.44140625 C-226.27539955 200.33592341 -225.96468251 198.1729939 -225.49609375 194.56640625 C-223.60552624 191.86113523 -221.21714382 189.80345165 -218.75 187.62890625 C-217.34082826 186.3083245 -215.93265673 184.98667478 -214.52539062 183.6640625 C-212.3019579 181.61358246 -210.06926108 179.57595981 -207.81616211 177.55810547 C-205.63703964 175.5927356 -203.50564084 173.58406768 -201.375 171.56640625 C-200.36561119 170.69834351 -200.36561119 170.69834351 -199.33583069 169.81274414 C-194.11774285 164.79352972 -193.64501226 160.23519638 -193.48582458 153.16122437 C-193.488432 151.62961672 -193.49191892 150.09801042 -193.49609375 148.56640625 C-193.47596965 146.74693263 -193.45349231 144.92748404 -193.42909241 143.10806274 C-193.37001691 137.7921761 -193.35891395 132.4770624 -193.35799408 127.16088295 C-193.35362387 121.13649826 -193.32254022 115.1122153 -193.296875 109.08789062 C-193.26651391 101.46440309 -193.24378159 93.84108313 -193.24560547 86.2175293 C-193.24639482 80.01437644 -193.22295021 73.81171772 -193.18372345 67.60869408 C-193.17331257 65.26016654 -193.17170287 62.91158167 -193.17937469 60.56304359 C-193.23149784 42.8560524 -191.78016313 30.63580457 -179.34765625 17.25390625 C-169.98262624 8.04041394 -159.68833335 4.92740607 -146.70973206 4.92297363 C-145.27522719 4.93856632 -143.84073282 4.95515192 -142.40625 4.97265625 C-140.88895259 4.97437377 -139.37165222 4.97429519 -137.85435486 4.97253418 C-134.69500807 4.97417485 -131.5363816 4.99263542 -128.37719727 5.02441406 C-124.36886258 5.06405325 -120.36146844 5.06845498 -116.35297489 5.06095123 C-113.22553707 5.05785125 -110.0983026 5.07010879 -106.97091484 5.08708191 C-105.49484982 5.09401231 -104.01876178 5.09724885 -102.54268074 5.09638977 C-86.8355857 5.11028684 -72.80335597 6.81120158 -60.80859375 17.69140625 C-44.14146964 35.58289256 -48.12731042 57.58017286 -47.49609375 81.56640625 C-25.71609375 59.78640625 -3.93609375 38.00640625 18.50390625 15.56640625 C4.64390625 15.07140625 4.64390625 15.07140625 -9.49609375 14.56640625 C-14.49609375 10.56640625 -14.49609375 10.56640625 -15.05859375 7.56640625 C-13.50060514 -0.74286634 -7.00148771 -0.03501579 0 0 Z " fill="#262768" transform="translate(916.49609375,492.43359375)"/>
<path d="M0 0 C1.46151486 -0.00270215 2.92302796 -0.00659054 4.38453674 -0.01159668 C7.4330473 -0.01745977 10.48108581 -0.00903452 13.52954102 0.00976562 C17.40722297 0.03253367 21.2837958 0.01942652 25.16143703 -0.00452423 C28.17552306 -0.01908701 31.18935294 -0.01432847 34.20344734 -0.00401306 C35.63176675 -0.00137351 37.06011059 -0.00451616 38.48840141 -0.01393127 C50.15069087 -0.07395307 60.3028473 1.21507166 69.03125 9.53125 C81.90226533 24.47446961 79.0880533 50.3042005 78.21011353 68.66677856 C77.24479875 79.77930828 73.17097996 86.7541778 64.75390625 93.90625 C60.93302619 97.09296494 57.00492686 99.93371812 52.75390625 102.53125 C46.64233956 97.48002344 41.08120443 91.97404882 35.50390625 86.34375 C34.60671875 85.44205078 33.70953125 84.54035156 32.78515625 83.61132812 C31.12872568 81.94621866 29.473329 80.28007955 27.81933594 78.61254883 C26.79694824 77.58230591 26.79694824 77.58230591 25.75390625 76.53125 C25.29145508 75.94432373 24.82900391 75.35739746 24.35253906 74.75268555 C21.77984686 72.78701983 19.91117385 73.15138396 16.75390625 73.53125 C14.56935388 75.15867819 12.89641148 76.63597851 11.03979492 78.58007812 C10.50407867 79.11652451 9.96836243 79.65297089 9.41641235 80.20567322 C7.65376217 81.9775823 5.91320141 83.7696521 4.171875 85.5625 C2.95112075 86.796988 1.72895738 88.03008401 0.50544739 89.26184082 C-2.70822023 92.50405777 -5.90389185 95.76344286 -9.09570312 99.02716064 C-12.98594051 102.99904947 -16.89540535 106.95199462 -20.8037138 110.90608978 C-23.84203328 113.98025284 -26.87672952 117.05771453 -29.90107727 120.14562988 C-30.4558223 120.71032486 -31.01056732 121.27501984 -31.5821228 121.85682678 C-32.62275059 122.9161988 -33.66145942 123.97746031 -34.69795227 125.0408783 C-35.86171919 126.2232874 -37.05116059 127.38034623 -38.24609375 128.53125 C-38.57609375 128.53125 -38.90609375 128.53125 -39.24609375 128.53125 C-39.38548065 115.0483328 -39.4919114 101.5655887 -39.55696678 88.0820961 C-39.58819968 81.82025849 -39.63052652 75.558916 -39.69873047 69.29736328 C-39.76420824 63.24782231 -39.7998602 57.19875579 -39.81535721 51.14888763 C-39.82639252 48.84771004 -39.84794163 46.54655666 -39.88047409 44.24558258 C-40.2141591 19.65315693 -40.2141591 19.65315693 -31.43685913 9.42242432 C-22.43695206 0.65248578 -12.02782278 -0.07915544 0 0 Z " fill="#FDFDFD" transform="translate(777.24609375,511.46875)"/>
<path d="M0 0 C9.89889321 6.79391663 16.40384712 16.11872676 19.1875 27.8125 C20.95021178 41.89209658 18.17874086 53.15234052 9.875 64.8125 C3.20492362 72.6966473 -6.69194187 77.86483863 -16.8125 79.8125 C-29.81269337 80.84778275 -40.41788543 79.12111443 -51.1875 71.125 C-60.2134879 63.30052348 -66.33240723 53.34113628 -67.2265625 41.3125 C-67.82494977 27.75176909 -65.03279446 17.55909354 -56.0390625 7.06640625 C-40.99381746 -8.16360495 -18.48849824 -11.01763569 0 0 Z " fill="#28296A" transform="translate(819.8125,403.1875)"/>
<path d="M0 0 C0.79011475 0.00829834 1.58022949 0.01659668 2.39428711 0.02514648 C12.80556721 0.32585259 20.6593929 4.16580477 28.125 11.4375 C35.01809092 19.64228589 38.70824974 27.50847554 38.5625 38.25 C38.55492676 39.03681152 38.54735352 39.82362305 38.53955078 40.63427734 C38.22661146 51.75618668 34.24155175 60.23459693 26.46484375 68.12109375 C18.33093651 75.55092702 8.66184238 78.96865645 -2.3046875 78.68359375 C-12.43950527 77.71323886 -21.85264199 73.04811882 -28.75 65.5625 C-31.78827232 61.81648896 -34.08056808 57.91082319 -35.875 53.4375 C-36.23207031 52.54933594 -36.58914063 51.66117187 -36.95703125 50.74609375 C-39.34982172 42.12186596 -39.59534714 30.30170497 -35.12109375 22.375 C-34.70988281 21.735625 -34.29867188 21.09625 -33.875 20.4375 C-33.47410156 19.695 -33.07320313 18.9525 -32.66015625 18.1875 C-25.72366217 6.28487828 -13.52653161 -0.18402459 0 0 Z " fill="#28296A" transform="translate(533.875,458.5625)"/>
<path d="M0 0 C1.92037136 -0.01647971 3.84068344 -0.04366287 5.76074219 -0.08203125 C8.53726866 -0.13722581 11.31235174 -0.15874607 14.08935547 -0.17333984 C14.9365918 -0.19600922 15.78382813 -0.21867859 16.65673828 -0.24203491 C23.10417273 -0.21954201 27.65418402 1.61381545 32.90185547 5.35009766 C37.70176369 10.39615502 39.39644437 14.65630269 39.30419922 21.53369141 C38.58503064 26.56787145 36.27106883 30.89936114 33.90185547 35.35009766 C34.49611328 35.59888672 35.09037109 35.84767578 35.70263672 36.10400391 C38.22069548 37.53075479 39.39917639 38.95436844 41.08935547 41.28759766 C41.59853516 41.97724609 42.10771484 42.66689453 42.63232422 43.37744141 C45.77471594 48.2602347 45.44533347 53.75457063 44.90185547 59.35009766 C43.17138635 65.23369267 39.96249074 68.87711267 34.90185547 72.35009766 C28.96737386 75.50157112 24.06251033 75.76513973 17.40966797 75.67822266 C16.42312225 75.67634949 15.43657654 75.67447632 14.4201355 75.67254639 C12.34760121 75.66585357 10.27507896 75.65199465 8.20263672 75.63134766 C5.01632061 75.59999399 1.83049856 75.59035353 -1.35595703 75.58447266 C-3.37158812 75.57531006 -5.38721415 75.56493667 -7.40283203 75.55322266 C-8.36003143 75.54897278 -9.31723083 75.5447229 -10.30343628 75.54034424 C-11.18170074 75.53073669 -12.05996521 75.52112915 -12.96484375 75.51123047 C-14.12897293 75.50098846 -14.12897293 75.50098846 -15.31661987 75.49053955 C-17.09814453 75.35009766 -17.09814453 75.35009766 -18.09814453 74.35009766 C-18.19782039 72.08560386 -18.22614284 69.81795554 -18.22753906 67.55126953 C-18.22929138 66.84071915 -18.2310437 66.13016876 -18.23284912 65.39808655 C-18.2372673 63.03831575 -18.23432978 60.67861928 -18.23095703 58.31884766 C-18.23163008 56.68599432 -18.23260011 55.05314108 -18.2338562 53.42028809 C-18.23533313 49.99372405 -18.23317879 46.56718602 -18.22851562 43.140625 C-18.22281833 38.73855264 -18.22609737 34.33654125 -18.23208809 29.93447113 C-18.23569384 26.561417 -18.23455505 23.18837743 -18.2319603 19.81532288 C-18.23129107 18.19173678 -18.23211931 16.56814939 -18.23443985 14.94456482 C-18.23696662 12.67931595 -18.23312547 10.41416715 -18.22753906 8.14892578 C-18.22674347 6.85732544 -18.22594788 5.5657251 -18.22512817 4.23498535 C-17.92622367 -2.55569961 -5.43622667 0.03415527 0 0 Z " fill="#292A6A" transform="translate(603.09814453125,459.64990234375)"/>
<path d="M0 0 C0.8765625 -0.03738281 1.753125 -0.07476562 2.65625 -0.11328125 C3.49929687 -0.12488281 4.34234375 -0.13648438 5.2109375 -0.1484375 C6.37181885 -0.1781665 6.37181885 -0.1781665 7.55615234 -0.20849609 C9.625 0.375 9.625 0.375 11.19116211 2.3347168 C13.07048546 6.3195991 14.54464471 10.38056853 15.98046875 14.54296875 C16.28696854 15.41899246 16.59346832 16.29501617 16.90925598 17.19758606 C17.55308033 19.04152504 18.19419772 20.88641115 18.83276367 22.73217773 C19.81348853 25.56535574 20.80352008 28.39515209 21.79492188 31.22460938 C22.41982063 33.01803769 23.04418827 34.81165117 23.66796875 36.60546875 C23.9647905 37.45441208 24.26161224 38.30335541 24.56742859 39.17802429 C24.83803604 39.96256485 25.10864349 40.74710541 25.38745117 41.55541992 C25.62711105 42.24649338 25.86677094 42.93756683 26.11369324 43.64958191 C26.625 45.375 26.625 45.375 26.625 47.375 C29.10426845 45.17111239 30.2300682 43.33402282 31.31079102 40.21069336 C31.60442032 39.37650375 31.89804962 38.54231415 32.20057678 37.68284607 C32.66009987 36.33743492 32.66009987 36.33743492 33.12890625 34.96484375 C33.45285873 34.04159805 33.77681122 33.11835236 34.11058044 32.16712952 C35.14440765 29.21837006 36.16685967 26.26584734 37.1875 23.3125 C38.21270066 20.35595669 39.24040757 17.40038346 40.27513123 14.44715881 C40.91868803 12.60953299 41.55660487 10.76992051 42.18836975 8.9282074 C42.47884689 8.09716995 42.76932404 7.26613251 43.06860352 6.40991211 C43.32158707 5.67727646 43.57457062 4.94464081 43.83522034 4.18980408 C44.625 2.375 44.625 2.375 46.625 0.375 C48.48852539 0.13208008 48.48852539 0.13208008 50.72265625 0.14453125 C51.52380859 0.14646484 52.32496094 0.14839844 53.15039062 0.15039062 C53.98763672 0.16263672 54.82488281 0.17488281 55.6875 0.1875 C56.94916992 0.1884668 56.94916992 0.1884668 58.23632812 0.18945312 C64.48476816 0.23476816 64.48476816 0.23476816 65.625 1.375 C65.72467586 3.63949379 65.75299831 5.90714211 65.75439453 8.17382812 C65.75702301 9.2396537 65.75702301 9.2396537 65.75970459 10.32701111 C65.76412277 12.68678191 65.76118525 15.04647837 65.7578125 17.40625 C65.75848555 19.03910334 65.75945558 20.67195658 65.76071167 22.30480957 C65.7621886 25.73137361 65.76003426 29.15791163 65.75537109 32.58447266 C65.7496738 36.98654501 65.75295284 41.38855641 65.75894356 45.79062653 C65.76254931 49.16368065 65.76141052 52.53672022 65.75881577 55.90977478 C65.75814654 57.53336087 65.75897478 59.15694827 65.76129532 60.78053284 C65.76382209 63.0457817 65.75998094 65.3109305 65.75439453 67.57617188 C65.75359894 68.86777222 65.75280334 70.15937256 65.75198364 71.4901123 C65.625 74.375 65.625 74.375 64.625 75.375 C63.29456375 75.4733721 61.95906656 75.50578592 60.625 75.5078125 C59.820625 75.50910156 59.01625 75.51039063 58.1875 75.51171875 C57.341875 75.50785156 56.49625 75.50398437 55.625 75.5 C54.779375 75.50386719 53.93375 75.50773438 53.0625 75.51171875 C52.258125 75.51042969 51.45375 75.50914062 50.625 75.5078125 C49.8825 75.50668457 49.14 75.50555664 48.375 75.50439453 C46.625 75.375 46.625 75.375 45.625 74.375 C45.53638008 71.5633662 45.50977645 68.77641745 45.52734375 65.96484375 C45.5287587 65.12280899 45.53017365 64.28077423 45.53163147 63.41322327 C45.53724737 60.71294665 45.54980252 58.01275172 45.5625 55.3125 C45.56751295 53.48632932 45.57207621 51.66015734 45.57617188 49.83398438 C45.58722196 45.34762458 45.60449721 40.86132616 45.625 36.375 C42.95029918 38.69435373 41.97193764 40.65815473 40.94140625 44.0234375 C40.51239014 45.3997937 40.51239014 45.3997937 40.07470703 46.80395508 C39.78192871 47.7761499 39.48915039 48.74834473 39.1875 49.75 C38.88183105 50.73701904 38.57616211 51.72403809 38.26123047 52.7409668 C37.37276664 55.61611483 36.49658274 58.49469544 35.625 61.375 C34.83427264 63.97945476 34.04249663 66.58358249 33.25 69.1875 C32.95351562 70.18394531 32.65703125 71.18039062 32.3515625 72.20703125 C31.625 74.375 31.625 74.375 30.625 75.375 C28.09450598 75.44813567 25.59195163 75.46747527 23.0625 75.4375 C21.99612305 75.43073242 21.99612305 75.43073242 20.90820312 75.42382812 C19.14709987 75.41200864 17.38603964 75.39407263 15.625 75.375 C11.61903012 66.52777291 8.8171499 57.59210212 6.16845703 48.27197266 C5.11092739 44.58059559 3.9735574 40.97115306 2.625 37.375 C1.965 37.045 1.305 36.715 0.625 36.375 C0.63023682 37.520896 0.63547363 38.66679199 0.64086914 39.84741211 C0.65891717 44.08340682 0.67043128 48.31939812 0.67993164 52.55541992 C0.68497231 54.39168875 0.69180477 56.22795354 0.70043945 58.06420898 C0.71251672 60.69776401 0.71823081 63.33126616 0.72265625 65.96484375 C0.72781754 66.79088608 0.73297882 67.61692841 0.73829651 68.46800232 C0.73849205 70.43736368 0.68704152 72.40661614 0.625 74.375 C-0.375 75.375 -0.375 75.375 -2.40625 75.5078125 C-3.2209375 75.50523437 -4.035625 75.50265625 -4.875 75.5 C-5.6896875 75.50257813 -6.504375 75.50515625 -7.34375 75.5078125 C-9.375 75.375 -9.375 75.375 -10.375 74.375 C-10.47467586 72.11050621 -10.50299831 69.84285789 -10.50439453 67.57617188 C-10.50614685 66.86562149 -10.50789917 66.15507111 -10.50970459 65.42298889 C-10.51412277 63.06321809 -10.51118525 60.70352163 -10.5078125 58.34375 C-10.50848555 56.71089666 -10.50945558 55.07804342 -10.51071167 53.44519043 C-10.5121886 50.01862639 -10.51003426 46.59208837 -10.50537109 43.16552734 C-10.4996738 38.76345499 -10.50295284 34.36144359 -10.50894356 29.95937347 C-10.51254931 26.58631935 -10.51141052 23.21327978 -10.50881577 19.84022522 C-10.50814654 18.21663913 -10.50897478 16.59305173 -10.51129532 14.96946716 C-10.51382209 12.7042183 -10.50998094 10.4390695 -10.50439453 8.17382812 C-10.50359894 6.88222778 -10.50280334 5.59062744 -10.50198364 4.2598877 C-10.24154222 -1.65697096 -4.81016355 0.0771309 0 0 Z " fill="#292A6B" transform="translate(130.375,459.625)"/>
<path d="M0 0 C4.74433704 0.25481094 7.36896331 1.05713918 10.74633789 4.49536133 C15.76231544 11.39456739 19.68527605 18.92508203 23.51635742 26.53051758 C25.73060297 30.86705495 28.17669373 35.02189244 30.7175293 39.17211914 C31.37624023 40.30004883 32.03495117 41.42797852 32.71362305 42.59008789 C34.05749855 45.08322094 34.05749855 45.08322094 36.2800293 45.98461914 C36.27479248 44.6872583 36.26955566 43.38989746 36.26416016 42.05322266 C36.2461146 37.25814499 36.23459893 32.46307034 36.22509766 27.66796875 C36.22005641 25.58918758 36.21322355 23.51040998 36.20458984 21.43164062 C36.19251507 18.45059328 36.18679906 15.46959265 36.18237305 12.48852539 C36.17463112 11.08540855 36.17463112 11.08540855 36.16673279 9.65394592 C36.16665726 8.79312912 36.16658173 7.93231232 36.16650391 7.04541016 C36.16428329 6.28374039 36.16206268 5.52207062 36.15977478 4.73731995 C36.2800293 2.98461914 36.2800293 2.98461914 37.2800293 1.98461914 C38.77741054 1.88671344 40.27945822 1.8548705 41.7800293 1.85961914 C42.5947168 1.85704102 43.4094043 1.85446289 44.2487793 1.85180664 C46.2800293 1.98461914 46.2800293 1.98461914 47.2800293 2.98461914 C47.37970516 5.24911294 47.40802761 7.51676125 47.40942383 9.78344727 C47.41117615 10.49399765 47.41292847 11.20454803 47.41473389 11.93663025 C47.41915207 14.29640105 47.41621455 16.65609752 47.4128418 19.01586914 C47.41351485 20.64872248 47.41448488 22.28157572 47.41574097 23.91442871 C47.41721789 27.34099275 47.41506355 30.76753077 47.41040039 34.1940918 C47.4047031 38.59616415 47.40798213 42.99817555 47.41397285 47.40024567 C47.41757861 50.7732998 47.41643982 54.14633936 47.41384506 57.51939392 C47.41317583 59.14298001 47.41400408 60.76656741 47.41632462 62.39015198 C47.41885138 64.65540084 47.41501024 66.92054964 47.40942383 69.18579102 C47.40862823 70.47739136 47.40783264 71.7689917 47.40701294 73.09973145 C47.2800293 75.98461914 47.2800293 75.98461914 46.2800293 76.98461914 C43.54233954 77.32907682 40.9039949 77.54110657 38.1550293 77.67211914 C37.40737305 77.75139648 36.6597168 77.83067383 35.8894043 77.91235352 C33.38063365 78.00632315 31.6414793 77.85745889 29.2800293 76.98461914 C26.27275148 74.06400406 24.35411919 70.60364809 22.2800293 66.98461914 C21.60149902 65.85854248 20.92296875 64.73246582 20.22387695 63.57226562 C17.99187304 59.85895261 15.82112405 56.11163877 13.6550293 52.35961914 C10.87387937 47.56177149 8.08397315 42.76918414 5.2800293 37.98461914 C4.7634375 37.10064453 4.2468457 36.21666992 3.71459961 35.3059082 C2.62772209 33.49603817 1.46425561 31.73234347 0.2800293 29.98461914 C-0.3799707 29.98461914 -1.0399707 29.98461914 -1.7199707 29.98461914 C-2.0499707 45.49461914 -2.3799707 61.00461914 -2.7199707 76.98461914 C-5.6899707 76.98461914 -8.6599707 76.98461914 -11.7199707 76.98461914 C-13.62167774 75.0829121 -12.84781276 71.70614201 -12.84936523 69.18579102 C-12.85111755 68.47524063 -12.85286987 67.76469025 -12.85467529 67.03260803 C-12.85909348 64.67283723 -12.85615595 62.31314077 -12.8527832 59.95336914 C-12.85345625 58.3205158 -12.85442629 56.68766256 -12.85568237 55.05480957 C-12.8571593 51.62824553 -12.85500496 48.20170751 -12.8503418 44.77514648 C-12.84464451 40.37307413 -12.84792354 35.97106273 -12.85391426 31.56899261 C-12.85752002 28.19593849 -12.85638122 24.82289892 -12.85378647 21.44984436 C-12.85311724 19.82625827 -12.85394548 18.20267087 -12.85626602 16.5790863 C-12.85879279 14.31383744 -12.85495165 12.04868864 -12.84936523 9.78344727 C-12.84856964 8.49184692 -12.84777405 7.20024658 -12.84695435 5.86950684 C-12.57319499 -0.34991617 -5.08806532 0.32197164 0 0 Z " fill="#28296A" transform="translate(422.719970703125,559.015380859375)"/>
<path d="M0 0 C0.83144531 0.65935547 0.83144531 0.65935547 1.6796875 1.33203125 C1.29063132 4.05542453 0.61231183 5.42106339 -1.0703125 7.64453125 C-3.3203125 9.33203125 -3.3203125 9.33203125 -5.5703125 9.33203125 C-7.93457029 8.47230114 -9.82936773 7.49244089 -12.0078125 6.26953125 C-16.79306203 3.83193233 -21.04146871 3.28606839 -26.3203125 4.33203125 C-32.39173822 6.79915027 -36.86472394 10.87943401 -39.5078125 16.890625 C-40.65102247 21.73277878 -40.82311822 26.43126043 -40.8828125 31.39453125 C-40.90516968 32.79541992 -40.90516968 32.79541992 -40.92797852 34.22460938 C-40.80245125 42.64459194 -38.39573817 50.25660558 -32.3203125 56.33203125 C-27.46669769 59.53100465 -23.95088761 59.69529416 -18.3203125 59.33203125 C-16.3403125 58.83703125 -16.3403125 58.83703125 -14.3203125 58.33203125 C-14.3203125 51.40203125 -14.3203125 44.47203125 -14.3203125 37.33203125 C-17.6203125 37.33203125 -20.9203125 37.33203125 -24.3203125 37.33203125 C-25.3203125 36.33203125 -25.3203125 36.33203125 -25.453125 34.51953125 C-25.45054687 33.79765625 -25.44796875 33.07578125 -25.4453125 32.33203125 C-25.44917969 31.24921875 -25.44917969 31.24921875 -25.453125 30.14453125 C-25.3203125 28.33203125 -25.3203125 28.33203125 -24.3203125 27.33203125 C-22.18678076 27.23199836 -20.04993708 27.20122077 -17.9140625 27.19921875 C-16.61339844 27.19792969 -15.31273437 27.19664062 -13.97265625 27.1953125 C-12.95147705 27.19845459 -12.95147705 27.19845459 -11.90966797 27.20166016 C-9.82902735 27.20700885 -7.74860261 27.20171445 -5.66796875 27.1953125 C-3.71697266 27.19724609 -3.71697266 27.19724609 -1.7265625 27.19921875 C-0.52322266 27.20034668 0.68011719 27.20147461 1.91992188 27.20263672 C4.6796875 27.33203125 4.6796875 27.33203125 5.6796875 28.33203125 C5.78079103 31.27738695 5.81938029 34.19880685 5.8125 37.14453125 C5.81345673 38.02858643 5.81441345 38.9126416 5.81539917 39.82348633 C5.81608101 41.69645254 5.81422643 43.56942111 5.81005859 45.44238281 C5.80471039 48.31971513 5.81000343 51.19689133 5.81640625 54.07421875 C5.81574547 55.88932326 5.81446431 57.70442768 5.8125 59.51953125 C5.81452423 60.38618408 5.81654846 61.25283691 5.81863403 62.14575195 C5.79463759 68.21708116 5.79463759 68.21708116 4.6796875 69.33203125 C2.93203298 69.43172966 1.1801772 69.4617117 -0.5703125 69.45703125 C-1.52421875 69.45960938 -2.478125 69.4621875 -3.4609375 69.46484375 C-6.3203125 69.33203125 -6.3203125 69.33203125 -8.921875 68.734375 C-11.69323057 68.26947333 -12.89242474 68.67751652 -15.4453125 69.76953125 C-23.8488845 72.77478216 -31.50369823 71.91938513 -39.68359375 68.59375 C-51.2841191 63.04268379 -57.67026719 55.39149622 -62.40625 43.63671875 C-63.54314581 39.52640312 -63.70416922 35.7654407 -63.6953125 31.51953125 C-63.69370117 30.71999023 -63.69208984 29.92044922 -63.69042969 29.09667969 C-63.56515759 23.07625028 -62.6338411 18.45189315 -59.3203125 13.33203125 C-58.7428125 12.32140625 -58.1653125 11.31078125 -57.5703125 10.26953125 C-43.9370276 -7.52947959 -19.16237429 -13.77497277 0 0 Z " fill="#28296A" transform="translate(545.3203125,566.66796875)"/>
<path d="M0 0 C0.75144287 0.00491455 1.50288574 0.0098291 2.27709961 0.01489258 C11.81425877 0.21527465 18.96937661 2.81390302 26.75 8.3125 C25.96616433 12.17392204 24.32189568 14.32578244 21.75 17.3125 C19.40104033 16.43164012 17.13588117 15.53228449 14.953125 14.2890625 C9.07657495 10.97468827 4.19496086 10.15859791 -2.38671875 11.8671875 C-8.637606 14.3675424 -11.58515247 19.32811922 -14.25 25.3125 C-17.12868758 35.74556165 -16.25772527 48.83709754 -11.1484375 58.3671875 C-8.52397659 62.44780091 -5.96312299 64.77167133 -1.25 66.3125 C3.52213696 66.81999999 6.67993036 67.02587976 10.75 64.3125 C11.16480107 62.28362689 11.16480107 62.28362689 11.04296875 59.9609375 C11.03330078 59.11015625 11.02363281 58.259375 11.01367188 57.3828125 C10.98853516 56.49335937 10.96339844 55.60390625 10.9375 54.6875 C10.92396484 53.7903125 10.91042969 52.893125 10.89648438 51.96875 C10.86106925 49.74940211 10.81168461 47.53124812 10.75 45.3125 C9.68458984 45.22162109 9.68458984 45.22162109 8.59765625 45.12890625 C7.67855469 45.04511719 6.75945312 44.96132813 5.8125 44.875 C4.89597656 44.79378906 3.97945313 44.71257812 3.03515625 44.62890625 C0.75 44.3125 0.75 44.3125 -0.25 43.3125 C-0.3828125 41.5 -0.3828125 41.5 -0.375 39.3125 C-0.37886719 38.2296875 -0.37886719 38.2296875 -0.3828125 37.125 C-0.25 35.3125 -0.25 35.3125 0.75 34.3125 C2.96855264 34.22466458 5.18988496 34.20555391 7.41015625 34.21484375 C8.62582275 34.21734131 9.84148926 34.21983887 11.09399414 34.22241211 C12.65110107 34.23151611 14.20820801 34.24062012 15.8125 34.25 C20.741875 34.270625 25.67125 34.29125 30.75 34.3125 C30.75 48.1725 30.75 62.0325 30.75 76.3125 C26.79 76.3125 22.83 76.3125 18.75 76.3125 C18.75 75.6525 18.75 74.9925 18.75 74.3125 C17.86699219 74.60125 16.98398437 74.89 16.07421875 75.1875 C4.07126433 78.90055142 -5.6691402 80.11109694 -17.25 74.3125 C-27.92021536 68.00154485 -33.97376505 60.48020326 -37.55078125 48.6171875 C-39.83725645 37.81071814 -38.97187011 27.84449389 -33.25 18.3125 C-25.04805533 6.92987994 -14.22132346 -0.109627 0 0 Z " fill="#28296A" transform="translate(310.25,458.6875)"/>
<path d="M0 0 C-0.79504846 3.77648021 -1.84373375 5.63280031 -5 8 C-9.01819662 7.89696932 -11.64811837 6.06269639 -15 4 C-18.62061746 2.77938181 -22.20302702 2.79826661 -26 2.75 C-27.8253125 2.71132813 -27.8253125 2.71132813 -29.6875 2.671875 C-33.17460976 3.01729625 -34.50053871 3.62551177 -37 6 C-37.29170908 8.8017367 -37.29170908 8.8017367 -36 12 C-31.2702535 16.05406843 -25.24773038 18.36245354 -19.62182617 20.91455078 C-10.40974004 25.10868757 -1.86752022 29.08760949 2.375 38.8984375 C3.94131729 44.16517938 3.71159076 49.00173789 1.5625 54.0625 C-2.80144887 61.7070398 -9.73371674 66.77904255 -18.0546875 69.375 C-28.79484055 71.65407757 -39.96384898 70.13111536 -49.48828125 64.5390625 C-52.89848432 62.08271879 -55.78207749 59.61648511 -58 56 C-57 53 -57 53 -54.6875 51.1875 C-53.3571875 50.5996875 -53.3571875 50.5996875 -52 50 C-48.39268849 51.43998586 -45.23343146 53.75065156 -42 55.87890625 C-37.61874679 58.33480405 -33.40456796 58.16322303 -28.4375 58.1875 C-27.76525391 58.19974609 -27.09300781 58.21199219 -26.40039062 58.22460938 C-22.70121763 58.23562975 -21.16028067 58.10685378 -18 56 C-17.08044397 53.17508802 -17.08044397 53.17508802 -18 50 C-22.9156026 45.11505437 -29.10446757 42.38597812 -35.375 39.6875 C-45.22623329 35.22985506 -53.57998388 30.39447217 -58 20 C-59.03796031 14.55772164 -58.10267409 9.71224282 -55.39453125 4.91796875 C-42.51957657 -12.78960197 -16.43115812 -11.6119637 0 0 Z " fill="#28296A" transform="translate(620,568)"/>
<path d="M0 0 C-0.79504846 3.77648021 -1.84373375 5.63280031 -5 8 C-9.01819662 7.89696932 -11.64811837 6.06269639 -15 4 C-18.62061746 2.77938181 -22.20302702 2.79826661 -26 2.75 C-27.8253125 2.71132813 -27.8253125 2.71132813 -29.6875 2.671875 C-33.17460976 3.01729625 -34.50053871 3.62551177 -37 6 C-37.29170908 8.8017367 -37.29170908 8.8017367 -36 12 C-31.2702535 16.05406843 -25.24773038 18.36245354 -19.62182617 20.91455078 C-10.40974004 25.10868757 -1.86752022 29.08760949 2.375 38.8984375 C3.94131729 44.16517938 3.71159076 49.00173789 1.5625 54.0625 C-2.80144887 61.7070398 -9.73371674 66.77904255 -18.0546875 69.375 C-28.79484055 71.65407757 -39.96384898 70.13111536 -49.48828125 64.5390625 C-52.89848432 62.08271879 -55.78207749 59.61648511 -58 56 C-57 53 -57 53 -54.6875 51.1875 C-53.3571875 50.5996875 -53.3571875 50.5996875 -52 50 C-48.39268849 51.43998586 -45.23343146 53.75065156 -42 55.87890625 C-37.61874679 58.33480405 -33.40456796 58.16322303 -28.4375 58.1875 C-27.76525391 58.19974609 -27.09300781 58.21199219 -26.40039062 58.22460938 C-22.70121763 58.23562975 -21.16028067 58.10685378 -18 56 C-17.08044397 53.17508802 -17.08044397 53.17508802 -18 50 C-22.9156026 45.11505437 -29.10446757 42.38597812 -35.375 39.6875 C-45.22623329 35.22985506 -53.57998388 30.39447217 -58 20 C-59.03796031 14.55772164 -58.10267409 9.71224282 -55.39453125 4.91796875 C-42.51957657 -12.78960197 -16.43115812 -11.6119637 0 0 Z " fill="#28296A" transform="translate(295,568)"/>
<path d="M0 0 C7.24481713 4.77371671 11.57249392 10.66711855 14 19 C15.42288425 27.25781037 13.09398463 35.39427097 8.45703125 42.296875 C3.91821631 47.82238884 -1.80508448 52.67634523 -9 54 C-17.82270576 54.83684201 -24.64881535 54.15487289 -32 49 C-38.69274053 43.44591098 -43.22104707 37.16747437 -44.33203125 28.37109375 C-44.84780879 19.17106179 -42.15869252 11.83873029 -36.13671875 4.83203125 C-25.40613844 -5.25342399 -13.05713018 -6.72871088 0 0 Z " fill="#FCFCFD" transform="translate(811,415)"/>
<path d="M0 0 C4.95 0 9.9 0 15 0 C20.46015136 13.63315219 25.41142811 27.42429959 30.21850586 41.30004883 C31.45210226 44.85457544 32.69760789 48.40479594 33.94335938 51.95507812 C34.73249754 54.22631014 35.52093552 56.49778558 36.30859375 58.76953125 C36.6803624 59.82469437 37.05213104 60.87985748 37.43516541 61.96699524 C37.94183495 63.44089973 37.94183495 63.44089973 38.45874023 64.94458008 C38.75739487 65.80295975 39.0560495 66.66133942 39.36375427 67.54573059 C40 70 40 70 40 75 C33.73 75 27.46 75 21 75 C18.23108925 68.98478009 16.12261208 63.36783623 14 57 C6.41 56.67 -1.18 56.34 -9 56 C-9.99 59.63 -10.98 63.26 -12 67 C-12.96467347 69.67964852 -13.95089782 72.35226593 -15 75 C-18.3 75 -21.6 75 -25 75 C-24.49988744 67.38324589 -22.49800513 60.88994566 -19.921875 53.73046875 C-19.51342346 52.57307693 -19.10497192 51.41568512 -18.68414307 50.22322083 C-17.82113485 47.7835203 -16.95351055 45.34544829 -16.08154297 42.90893555 C-14.75911386 39.21297168 -13.45057864 35.51232726 -12.14453125 31.81054688 C-11.30029203 29.42939914 -10.45526523 27.04853047 -9.609375 24.66796875 C-9.22271667 23.57695358 -8.83605835 22.48593842 -8.43768311 21.36186218 C-5.84824256 14.1378463 -2.99992107 7.06372143 0 0 Z " fill="#292A6B" transform="translate(378,460)"/>
<path d="M0 0 C1.43653931 -0.00472824 1.43653931 -0.00472824 2.90209961 -0.009552 C3.94374268 -0.00752777 4.98538574 -0.00550354 6.05859375 -0.00341797 C7.12021729 -0.00437469 8.18184082 -0.00533142 9.27563477 -0.00631714 C11.52522847 -0.00699911 13.77482412 -0.00514366 16.02441406 -0.00097656 C19.48116446 0.00437143 22.93778492 -0.00092101 26.39453125 -0.00732422 C28.57421904 -0.00666344 30.75390675 -0.00538228 32.93359375 -0.00341797 C34.49605835 -0.00645432 34.49605835 -0.00645432 36.09008789 -0.009552 C37.04778076 -0.00639984 38.00547363 -0.00324768 38.9921875 0 C39.83966553 0.00079559 40.68714355 0.00159119 41.56030273 0.00241089 C43.49609375 0.12939453 43.49609375 0.12939453 44.49609375 1.12939453 C44.62890625 2.94189453 44.62890625 2.94189453 44.62109375 5.12939453 C44.62496094 6.21220703 44.62496094 6.21220703 44.62890625 7.31689453 C44.49609375 9.12939453 44.49609375 9.12939453 43.49609375 10.12939453 C41.35222718 10.28798295 39.20342537 10.38068751 37.0546875 10.44580078 C35.09692383 10.50864258 35.09692383 10.50864258 33.09960938 10.57275391 C31.71094045 10.61257061 30.32226853 10.65228278 28.93359375 10.69189453 C27.54100192 10.73507442 26.14842347 10.77868853 24.75585938 10.82275391 C21.33606826 10.92925259 17.91609479 11.02986509 14.49609375 11.12939453 C14.49609375 18.05939453 14.49609375 24.98939453 14.49609375 32.12939453 C19.38728152 32.41854722 19.38728152 32.41854722 24.27905273 32.69750977 C29.38498264 33.01828342 29.38498264 33.01828342 30.49609375 34.12939453 C30.63724536 36.79998304 30.53856482 39.45371691 30.49609375 42.12939453 C28.88927734 42.22027344 28.88927734 42.22027344 27.25 42.31298828 C25.85284984 42.3973799 24.45571518 42.48202859 23.05859375 42.56689453 C22.35154297 42.60621094 21.64449219 42.64552734 20.91601562 42.68603516 C17.40918956 42.60563891 17.40918956 42.60563891 14.49609375 44.12939453 C14.40939943 45.61811313 14.38905881 47.11083953 14.3984375 48.60205078 C14.40327148 49.95073242 14.40327148 49.95073242 14.40820312 51.32666016 C14.41658203 52.2721875 14.42496094 53.21771484 14.43359375 54.19189453 C14.43810547 55.14128906 14.44261719 56.09068359 14.44726562 57.06884766 C14.45909265 59.42242518 14.4755735 61.7758793 14.49609375 64.12939453 C15.89686157 64.16697876 15.89686157 64.16697876 17.32592773 64.20532227 C20.77934564 64.30026381 24.23258335 64.39950711 27.68579102 64.50170898 C29.18248644 64.54511266 30.67923314 64.58678366 32.17602539 64.62670898 C34.32323687 64.68428069 36.47018896 64.74801169 38.6171875 64.81298828 C39.91068115 64.849646 41.2041748 64.88630371 42.53686523 64.92407227 C45.49609375 65.12939453 45.49609375 65.12939453 46.49609375 66.12939453 C46.62890625 67.94189453 46.62890625 67.94189453 46.62109375 70.12939453 C46.62496094 71.21220703 46.62496094 71.21220703 46.62890625 72.31689453 C46.49609375 74.12939453 46.49609375 74.12939453 45.49609375 75.12939453 C43.89998393 75.22273159 42.29975947 75.24684826 40.70092773 75.24291992 C39.67994492 75.24284439 38.6589621 75.24276886 37.60704041 75.24269104 C36.49663895 75.23752975 35.38623749 75.23236847 34.2421875 75.22705078 C33.11160416 75.22563583 31.98102081 75.22422089 30.81617737 75.22276306 C27.1886231 75.21714472 23.56112951 75.20458911 19.93359375 75.19189453 C17.48112068 75.18688189 15.02864665 75.18231858 12.57617188 75.17822266 C6.5494583 75.16716933 0.52278036 75.15041337 -5.50390625 75.12939453 C-5.5270309 65.49826742 -5.54482196 55.86714979 -5.55571842 46.23600101 C-5.56094699 41.76433904 -5.56804414 37.292696 -5.5793457 32.82104492 C-5.59017554 28.5092748 -5.59618329 24.19752294 -5.59878349 19.88574028 C-5.60063757 18.23703155 -5.60425785 16.58832388 -5.60963631 14.93962288 C-5.61684803 12.63835581 -5.61789714 10.33716514 -5.61743164 8.03588867 C-5.61965225 6.72350723 -5.62187286 5.41112579 -5.62416077 4.05897522 C-5.43535034 -0.5407305 -4.17057761 0.00391524 0 0 Z " fill="#29296A" transform="translate(216.50390625,459.87060546875)"/>
<path d="M0 0 C1.8569751 -0.00472824 1.8569751 -0.00472824 3.75146484 -0.009552 C5.11295609 -0.00776222 6.47444701 -0.00571127 7.8359375 -0.00341797 C9.22216814 -0.00409106 10.60839867 -0.00506113 11.99462891 -0.00631714 C14.90333172 -0.00779387 17.81200387 -0.00564037 20.72070312 -0.00097656 C24.45690348 0.00472073 28.19303202 0.00144159 31.92922974 -0.00454903 C34.79273016 -0.00815532 37.65621343 -0.00701574 40.51971436 -0.00442123 C41.89768482 -0.00375215 43.27565682 -0.00457973 44.65362549 -0.00690079 C46.57637504 -0.00942839 48.49913002 -0.0048957 50.421875 0 C52.06615479 0.00119339 52.06615479 0.00119339 53.74365234 0.00241089 C56.2109375 0.12939453 56.2109375 0.12939453 57.2109375 1.12939453 C57.34375 2.94189453 57.34375 2.94189453 57.3359375 5.12939453 C57.33980469 6.21220703 57.33980469 6.21220703 57.34375 7.31689453 C57.2109375 9.12939453 57.2109375 9.12939453 56.2109375 10.12939453 C54.72454758 10.2859448 53.23144623 10.38006396 51.73828125 10.44580078 C50.83916016 10.48769531 49.94003906 10.52958984 49.01367188 10.57275391 C47.59538086 10.63172852 47.59538086 10.63172852 46.1484375 10.69189453 C45.19904297 10.73507812 44.24964844 10.77826172 43.27148438 10.82275391 C40.91812397 10.92918729 38.56465396 11.03120462 36.2109375 11.12939453 C36.20063004 11.91644272 36.19032257 12.70349091 36.17970276 13.51438904 C36.08189562 20.9163756 35.97940564 28.31827521 35.87159824 35.72012234 C35.81633456 39.52586858 35.76290921 43.33162245 35.71362305 47.13745117 C35.66603009 50.80738788 35.61368941 54.47722844 35.55799675 58.14705086 C35.53755013 59.5501168 35.51884093 60.95320913 35.50186348 62.35632133 C35.47787063 64.31516379 35.44723551 66.27392154 35.41625977 68.23266602 C35.40071548 69.34963364 35.3851712 70.46660126 35.36915588 71.61741638 C35.2109375 74.12939453 35.2109375 74.12939453 34.2109375 75.12939453 C32.88050125 75.22776663 31.54500406 75.26018045 30.2109375 75.26220703 C29.4065625 75.26349609 28.6021875 75.26478516 27.7734375 75.26611328 C26.9278125 75.26224609 26.0821875 75.25837891 25.2109375 75.25439453 C24.3653125 75.25826172 23.5196875 75.26212891 22.6484375 75.26611328 C21.8440625 75.26482422 21.0396875 75.26353516 20.2109375 75.26220703 C19.4684375 75.2610791 18.7259375 75.25995117 17.9609375 75.25878906 C16.2109375 75.12939453 16.2109375 75.12939453 15.2109375 74.12939453 C15.11688608 72.13507723 15.09350501 70.1373991 15.09741211 68.14086914 C15.09748764 66.85961655 15.09756317 65.57836395 15.09764099 64.25828552 C15.10274841 62.84943605 15.10796441 61.44058698 15.11328125 60.03173828 C15.11514548 58.59827219 15.11656936 57.16480546 15.11756897 55.7313385 C15.12139378 51.95179496 15.13122373 48.17228963 15.14227295 44.39276123 C15.15248787 40.53870155 15.15706676 36.68463571 15.16210938 32.83056641 C15.17284604 25.26349166 15.18992201 17.69644844 15.2109375 10.12939453 C14.58002197 10.13463135 13.94910645 10.13986816 13.29907227 10.14526367 C10.45720403 10.16597279 7.61535162 10.17903519 4.7734375 10.19189453 C3.28360352 10.20446289 3.28360352 10.20446289 1.76367188 10.21728516 C0.81943359 10.22050781 -0.12480469 10.22373047 -1.09765625 10.22705078 C-1.97220459 10.2322876 -2.84675293 10.23752441 -3.74780273 10.24291992 C-5.7890625 10.12939453 -5.7890625 10.12939453 -6.7890625 9.12939453 C-6.921875 7.31689453 -6.921875 7.31689453 -6.9140625 5.12939453 C-6.91664063 4.40751953 -6.91921875 3.68564453 -6.921875 2.94189453 C-6.62536762 -1.10455906 -3.33921524 0.00242354 0 0 Z " fill="#2A2B6B" transform="translate(310.7890625,560.87060546875)"/>
<path d="M0 0 C0.804375 -0.00128906 1.60875 -0.00257813 2.4375 -0.00390625 C3.283125 -0.00003906 4.12875 0.00382812 5 0.0078125 C6.2684375 0.00201172 6.2684375 0.00201172 7.5625 -0.00390625 C8.366875 -0.00261719 9.17125 -0.00132812 10 0 C10.7425 0.00112793 11.485 0.00225586 12.25 0.00341797 C14 0.1328125 14 0.1328125 15 1.1328125 C15.11465375 2.86325796 15.1596336 4.59836691 15.17700195 6.33251953 C15.19625481 8.00158859 15.19625481 8.00158859 15.21589661 9.70437622 C15.22328354 10.92083832 15.23067047 12.13730042 15.23828125 13.390625 C15.246353 14.64100555 15.25442474 15.89138611 15.26274109 17.17965698 C15.27661419 19.84132611 15.28761686 22.50287013 15.29516602 25.16455078 C15.30394475 27.86856189 15.32461287 30.57204537 15.35668945 33.27587891 C15.77720343 71.4792211 15.77720343 71.4792211 3.22265625 85.0546875 C-2.11026499 90.15858758 -9.28372876 94.91814084 -16.83203125 95.26171875 C-17.54746094 95.21917969 -18.26289063 95.17664063 -19 95.1328125 C-19.33 92.8228125 -19.66 90.5128125 -20 88.1328125 C-19.46890625 87.78089844 -18.9378125 87.42898438 -18.390625 87.06640625 C-10.88778889 81.82263576 -8.10552393 77.06033738 -6.41262817 68.15090942 C-5.59788041 62.19157875 -5.65841182 56.19623891 -5.62109375 50.19140625 C-5.60488592 48.77318717 -5.58770258 47.35497894 -5.56959534 45.93678284 C-5.52429287 42.23673499 -5.48927228 38.53667209 -5.45739746 34.83648682 C-5.40512926 28.88352299 -5.3404951 22.93071627 -5.26918221 16.97795296 C-5.24633813 14.90112396 -5.23008802 12.82431551 -5.21446228 10.74742126 C-5.20097244 9.49844559 -5.1874826 8.24946991 -5.17358398 6.96264648 C-5.16407211 5.85807602 -5.15456024 4.75350555 -5.14476013 3.61546326 C-4.91087164 -0.39574783 -3.62313072 0.00550389 0 0 Z " fill="#292A6A" transform="translate(469,459.8671875)"/>
<path d="M0 0 C0.79792969 0.00386719 1.59585938 0.00773438 2.41796875 0.01171875 C3.21589844 0.00785156 4.01382813 0.00398437 4.8359375 0 C10.79136108 0.01011108 10.79136108 0.01011108 11.91796875 1.13671875 C12.04160172 3.09959641 12.09592315 5.06687033 12.12329102 7.03344727 C12.14323624 8.29467911 12.16318146 9.55591095 12.18373108 10.85536194 C12.2007167 12.24211502 12.21759546 13.62886941 12.234375 15.015625 C12.25493801 16.42667765 12.2759343 17.83772404 12.29734802 19.24876404 C12.3526363 22.96905465 12.40201561 26.68940148 12.45019531 30.40979004 C12.50036117 34.203583 12.55607283 37.99729398 12.61132812 41.79101562 C12.71899226 49.23951398 12.82041872 56.68808034 12.91796875 64.13671875 C14.31873657 64.17430298 14.31873657 64.17430298 15.74780273 64.21264648 C19.20122064 64.30758803 22.65445835 64.40683133 26.10766602 64.5090332 C27.60436144 64.55243688 29.10110814 64.59410788 30.59790039 64.6340332 C32.74511187 64.69160491 34.89206396 64.75533591 37.0390625 64.8203125 C38.33255615 64.85697021 39.6260498 64.89362793 40.95874023 64.93139648 C43.91796875 65.13671875 43.91796875 65.13671875 44.91796875 66.13671875 C44.91796875 69.10671875 44.91796875 72.07671875 44.91796875 75.13671875 C27.75796875 75.13671875 10.59796875 75.13671875 -7.08203125 75.13671875 C-7.12214006 56.70894913 -7.12214006 56.70894913 -7.13085938 48.88085938 C-7.13684754 43.53001927 -7.14394713 38.1791962 -7.1574707 32.82836914 C-7.16830054 28.51659902 -7.17430829 24.20484716 -7.17690849 19.8930645 C-7.17876257 18.24435577 -7.18238285 16.59564809 -7.18776131 14.9469471 C-7.19497303 12.64568003 -7.19602214 10.34448935 -7.19555664 8.04321289 C-7.19777725 6.73083145 -7.19999786 5.41845001 -7.20228577 4.06629944 C-6.98810821 -1.15138762 -4.65286232 0.0078996 0 0 Z " fill="#272869" transform="translate(153.08203125,560.86328125)"/>
<path d="M0 0 C6.8642757 3.36209422 10.07247712 9.2493351 12.8125 16.125 C15.95837272 26.64740186 14.54497493 38.11961971 10 48 C7.53324311 51.59300446 4.95349615 55.02325193 1 57 C-3.73252603 57.56148614 -6.79578452 57.66025215 -10.6875 54.75 C-18.17605023 47.26144977 -19.52845617 38.17709513 -19.6875 28 C-19.62413066 19.24176841 -18.65442805 12.04043753 -13 5 C-8.52879224 1.11728706 -6.01196939 -0.57807398 0 0 Z " fill="#FBFBFC" transform="translate(537,469)"/>
<path d="M0 0 C0.804375 -0.00128906 1.60875 -0.00257813 2.4375 -0.00390625 C3.283125 -0.00003906 4.12875 0.00382813 5 0.0078125 C6.2684375 0.00201172 6.2684375 0.00201172 7.5625 -0.00390625 C8.366875 -0.00261719 9.17125 -0.00132812 10 0 C10.7425 0.00112793 11.485 0.00225586 12.25 0.00341797 C14 0.1328125 14 0.1328125 15 1.1328125 C15.09967586 3.39730629 15.12799831 5.66495461 15.12939453 7.93164062 C15.13114685 8.64219101 15.13289917 9.35274139 15.13470459 10.08482361 C15.13912277 12.44459441 15.13618525 14.80429087 15.1328125 17.1640625 C15.13348555 18.79691584 15.13445558 20.42976908 15.13571167 22.06262207 C15.1371886 25.48918611 15.13503426 28.91572413 15.13037109 32.34228516 C15.1246738 36.74435751 15.12795284 41.14636891 15.13394356 45.54843903 C15.13754931 48.92149315 15.13641052 52.29453272 15.13381577 55.66758728 C15.13314654 57.29117337 15.13397478 58.91476077 15.13629532 60.53834534 C15.13882209 62.8035942 15.13498094 65.068743 15.12939453 67.33398438 C15.12859894 68.62558472 15.12780334 69.91718506 15.12698364 71.2479248 C15 74.1328125 15 74.1328125 14 75.1328125 C12.66956375 75.2311846 11.33406656 75.26359842 10 75.265625 C9.195625 75.26691406 8.39125 75.26820313 7.5625 75.26953125 C6.716875 75.26566406 5.87125 75.26179687 5 75.2578125 C4.154375 75.26167969 3.30875 75.26554688 2.4375 75.26953125 C1.633125 75.26824219 0.82875 75.26695312 0 75.265625 C-0.7425 75.26449707 -1.485 75.26336914 -2.25 75.26220703 C-4 75.1328125 -4 75.1328125 -5 74.1328125 C-5.09967586 71.86831871 -5.12799831 69.60067039 -5.12939453 67.33398438 C-5.13114685 66.62343399 -5.13289917 65.91288361 -5.13470459 65.18080139 C-5.13912277 62.82103059 -5.13618525 60.46133413 -5.1328125 58.1015625 C-5.13348555 56.46870916 -5.13445558 54.83585592 -5.13571167 53.20300293 C-5.1371886 49.77643889 -5.13503426 46.34990087 -5.13037109 42.92333984 C-5.1246738 38.52126749 -5.12795284 34.11925609 -5.13394356 29.71718597 C-5.13754931 26.34413185 -5.13641052 22.97109228 -5.13381577 19.59803772 C-5.13314654 17.97445163 -5.13397478 16.35086423 -5.13629532 14.72727966 C-5.13882209 12.4620308 -5.13498094 10.196882 -5.12939453 7.93164062 C-5.12859894 6.64004028 -5.12780334 5.34843994 -5.12698364 4.0177002 C-4.93606504 -0.31969882 -3.9454759 0.00599356 0 0 Z " fill="#2A2B6B" transform="translate(382,560.8671875)"/>
<path d="M0 0 C0.79792969 0.00386719 1.59585938 0.00773438 2.41796875 0.01171875 C3.21589844 0.00785156 4.01382813 0.00398437 4.8359375 0 C10.79136108 0.01011108 10.79136108 0.01011108 11.91796875 1.13671875 C12.0124021 3.4372571 12.03539003 5.74074048 12.03149414 8.04321289 C12.03164017 8.76512314 12.03178619 9.48703339 12.03193665 10.2308197 C12.03123744 12.62786822 12.0234447 15.02483998 12.015625 17.421875 C12.01376085 19.07954364 12.01233693 20.73721282 12.01133728 22.3948822 C12.00751187 26.76626089 11.9976814 31.13760656 11.9866333 35.50897217 C11.97641967 39.96626336 11.97183976 44.42355986 11.96679688 48.88085938 C11.95605915 57.63282937 11.93846217 66.38476615 11.91796875 75.13671875 C5.64796875 75.13671875 -0.62203125 75.13671875 -7.08203125 75.13671875 C-7.10458334 65.50558857 -7.12294695 55.8744758 -7.13384342 46.24332523 C-7.13907199 41.77166326 -7.14616914 37.30002022 -7.1574707 32.82836914 C-7.16830054 28.51659902 -7.17430829 24.20484716 -7.17690849 19.8930645 C-7.17876257 18.24435577 -7.18238285 16.59564809 -7.18776131 14.9469471 C-7.19497303 12.64568003 -7.19602214 10.34448935 -7.19555664 8.04321289 C-7.19777725 6.73083145 -7.19999786 5.41845001 -7.20228577 4.06629944 C-6.98810821 -1.15138762 -4.65286232 0.0078996 0 0 Z " fill="#262768" transform="translate(215.08203125,560.86328125)"/>
<path d="M0 0 C2.7225 -0.103125 5.445 -0.20625 8.25 -0.3125 C9.10110352 -0.35802002 9.95220703 -0.40354004 10.82910156 -0.45043945 C14.74379413 -0.52229845 16.43112976 -0.47876968 19.515625 2.1171875 C21.24587088 5.47750713 21.53550644 7.66937954 21.5 11.4375 C21.5103125 12.52933594 21.520625 13.62117187 21.53125 14.74609375 C20.85417327 18.89318869 19.92646142 20.95993371 17 24 C14.04004404 24.72306851 11.2739076 24.5690751 8.25 24.375 C4.16625 24.189375 4.16625 24.189375 0 24 C0 16.08 0 8.16 0 0 Z " fill="#FDFDFD" transform="translate(605,501)"/>
<path d="M0 0 C0.97710938 -0.03738281 1.95421875 -0.07476562 2.9609375 -0.11328125 C5.625 0.3125 5.625 0.3125 7.45703125 1.95703125 C8.92132076 4.91009671 8.99091431 7.02546571 8.9375 10.3125 C8.93363281 11.34375 8.92976562 12.375 8.92578125 13.4375 C8.62959849 16.26854561 8.1742999 17.94749096 6.625 20.3125 C4.12360398 21.56319801 2.35107309 21.44552467 -0.4375 21.4375 C-1.78521484 21.44136719 -1.78521484 21.44136719 -3.16015625 21.4453125 C-5.375 21.3125 -5.375 21.3125 -6.375 20.3125 C-6.47360131 18.90901265 -6.50578937 17.50069523 -6.5078125 16.09375 C-6.50910156 15.24425781 -6.51039063 14.39476562 -6.51171875 13.51953125 C-6.50785156 12.62621094 -6.50398437 11.73289062 -6.5 10.8125 C-6.50386719 9.91917969 -6.50773438 9.02585937 -6.51171875 8.10546875 C-6.51042969 7.25597656 -6.50914062 6.40648437 -6.5078125 5.53125 C-6.50668457 4.74685547 -6.50555664 3.96246094 -6.50439453 3.15429688 C-6.22945463 -0.75918731 -3.30278958 0.08235302 0 0 Z " fill="#FCFCFD" transform="translate(611.375,469.6875)"/>
<path d="M0 0 C3.79493019 2.52995346 4.42260149 5.22786146 5.75 9.375 C5.98332031 10.04789062 6.21664063 10.72078125 6.45703125 11.4140625 C7.72618074 15.27470885 8.01292844 16.94828623 7 21 C2.71 21 -1.58 21 -6 21 C-7.37584894 16.87245318 -5.98470976 13.91350065 -4.6875 9.9375 C-4.46126953 9.20466797 -4.23503906 8.47183594 -4.00195312 7.71679688 C-2.26468792 2.26468792 -2.26468792 2.26468792 0 0 Z " fill="#F4F4F7" transform="translate(380,485)"/>
</svg>
